<?xml version="1.0" standalone="no"?>
<!DOCTYPE svg PUBLIC "-//W3C//DTD SVG 20010904//EN"
 "http://www.w3.org/TR/2001/REC-SVG-20010904/DTD/svg10.dtd">
<svg version="1.0" xmlns="http://www.w3.org/2000/svg"
 width="500.000000pt" height="500.000000pt" viewBox="0 0 500.000000 500.000000"
 preserveAspectRatio="xMidYMid meet">

<g transform="translate(0.000000,500.000000) scale(0.100000,-0.100000)"
fill="#000000" stroke="none">
<path d="M2340 4309 c-129 -12 -233 -34 -380 -81 -398 -128 -731 -381 -971
-735 -142 -210 -199 -338 -260 -581 -51 -202 -63 -311 -56 -502 16 -403 161
-771 430 -1088 133 -157 277 -277 482 -399 489 -293 1032 -341 1538 -138 410
165 770 471 982 835 27 47 52 87 55 90 3 3 6 10 7 15 1 6 17 51 37 101 81 209
126 456 126 691 0 248 -61 510 -174 747 -61 129 -133 246 -180 292 -17 17 -64
69 -104 117 -291 348 -746 591 -1192 637 -109 11 -205 11 -340 -1z m437 -134
c51 -8 148 -33 215 -56 307 -101 549 -259 766 -498 142 -158 188 -223 257
-366 184 -380 232 -708 159 -1073 -72 -362 -224 -638 -490 -892 -107 -102
-298 -241 -404 -295 -180 -91 -380 -158 -565 -191 -104 -18 -326 -18 -440 1
-275 45 -563 165 -778 325 -109 81 -293 255 -316 298 -8 15 4 7 30 -19 44 -44
69 -39 33 6 -11 13 -52 63 -92 112 -65 78 -123 179 -180 313 -10 23 -11 23
-11 4 -1 -12 8 -42 20 -68 38 -86 14 -69 -30 20 -127 259 -174 507 -152 807 7
83 16 178 22 211 6 32 7 76 4 97 -5 30 -4 38 7 34 9 -3 35 48 87 170 40 96 92
206 115 245 45 78 181 236 321 375 203 202 539 378 821 430 194 37 415 40 601
10z m-1757 -2485 c0 -5 -2 -10 -4 -10 -3 0 -8 5 -11 10 -3 6 -1 10 4 10 6 0
11 -4 11 -10z"/>
<path d="M2295 4026 c-405 -67 -765 -280 -1019 -604 -136 -174 -156 -203 -212
-317 -39 -78 -62 -142 -80 -220 -14 -60 -30 -118 -35 -128 -15 -27 -38 -199
-40 -293 -1 -46 -5 -84 -10 -84 -4 0 -10 -8 -12 -17 -3 -13 -5 -12 -6 5 0 13
-10 32 -21 44 l-20 22 0 -59 c0 -46 3 -56 12 -47 19 19 28 14 28 -14 0 -14 7
-33 16 -42 15 -15 16 -13 9 16 -4 21 -3 32 4 32 6 0 11 -11 11 -25 0 -22 22
-110 72 -280 29 -99 103 -254 142 -295 18 -19 59 -71 91 -115 162 -224 363
-400 580 -507 230 -115 645 -200 778 -159 17 5 88 19 157 31 201 36 377 98
473 166 27 20 59 39 72 44 31 12 126 86 195 150 30 29 81 70 113 92 31 21 57
43 57 49 0 6 14 22 31 36 49 42 181 218 221 296 20 40 43 95 51 122 35 115 76
273 82 315 4 25 14 56 23 70 21 33 29 240 13 352 -22 149 -80 355 -129 453
-27 54 -221 327 -313 440 -74 91 -135 149 -147 141 -6 -3 -48 21 -94 54 -155
112 -399 219 -595 260 -127 27 -384 35 -498 16z m437 -96 c216 -37 446 -138
633 -277 104 -77 258 -230 295 -291 17 -27 30 -40 41 -37 28 9 89 -76 89 -123
0 -24 -7 -32 -40 -47 -22 -10 -40 -21 -40 -25 0 -14 -33 -20 -46 -9 -8 6 -30
38 -50 71 -34 55 -35 60 -20 77 15 17 12 23 -47 92 -168 197 -394 347 -649
433 -58 19 -136 40 -174 46 -38 6 -79 13 -91 16 -21 4 -23 0 -23 -33 0 -82 -2
-83 -99 -83 -54 0 -92 5 -99 12 -7 7 -12 31 -12 55 l0 43 -40 0 c-54 0 -218
-36 -305 -67 -213 -77 -433 -225 -590 -398 -68 -76 -77 -89 -67 -106 6 -10 10
-24 7 -31 -2 -7 -7 -26 -9 -42 -7 -38 -55 -106 -75 -106 -9 0 -26 7 -38 15
-27 19 -33 12 -72 -85 -54 -136 -101 -321 -101 -402 0 -27 1 -27 78 -30 l77
-3 0 -100 0 -100 -77 -3 -78 -3 0 -33 c0 -85 65 -332 118 -448 34 -77 47 -89
69 -67 20 20 48 0 83 -57 29 -48 32 -59 21 -76 -10 -17 -7 -25 27 -66 217
-258 530 -445 842 -501 144 -25 134 -29 145 52 l6 47 57 0 c102 0 108 -5 115
-95 2 -35 6 -40 30 -43 27 -3 38 12 15 21 -7 3 3 6 22 6 92 3 283 63 433 137
156 77 247 143 372 268 61 61 113 110 117 109 13 -5 22 49 11 65 -11 18 22 84
60 120 21 19 28 21 53 12 24 -10 30 -8 44 10 26 34 70 156 101 275 26 105 40
103 20 -4 -7 -36 -6 -46 10 -59 25 -22 17 -57 -43 -190 -15 -34 -32 -80 -37
-102 -10 -46 -67 -140 -85 -140 -7 0 -17 5 -23 11 -7 7 -24 -6 -59 -48 -182
-219 -398 -379 -574 -424 -25 -6 -56 -17 -70 -24 -14 -7 -42 -15 -63 -18 -32
-4 -36 -3 -26 9 17 20 -3 38 -31 29 -14 -4 -19 -12 -15 -22 4 -13 3 -14 -9 -4
-18 15 -69 6 -87 -15 -7 -8 -7 -14 -1 -14 5 0 8 -8 5 -18 -7 -27 -135 -55
-249 -55 -86 -1 -94 1 -139 31 -46 30 -61 34 -155 37 -92 4 -179 34 -415 146
-34 15 -108 64 -165 107 -119 90 -305 276 -294 294 5 8 2 9 -10 5 -52 -20 -63
-19 -83 10 -21 30 -96 184 -137 282 -122 289 -138 677 -41 976 33 102 125 295
165 344 16 21 26 42 22 46 -4 4 2 5 13 2 16 -5 35 13 95 89 172 218 406 380
688 474 65 22 156 46 203 54 127 21 335 20 471 -4z m-138 -286 c3 -9 6 -38 6
-65 0 -38 -4 -52 -20 -61 -19 -12 -20 -24 -20 -164 l0 -150 77 -18 c42 -10
121 -41 177 -69 174 -86 289 -225 346 -417 34 -114 20 -105 161 -105 123 0
124 0 122 23 -4 38 33 28 47 -13 l11 -34 62 5 c86 8 101 -5 102 -84 0 -33 -3
-63 -7 -67 -3 -4 -36 -8 -73 -8 -53 -2 -69 2 -79 16 -12 15 -32 17 -170 17
-132 0 -156 -2 -156 -15 0 -13 24 -15 153 -15 85 0 156 -2 159 -5 3 -3 3 -17
0 -30 l-4 -25 -158 0 -157 0 -17 -62 c-37 -135 -111 -246 -223 -334 -98 -77
-214 -128 -335 -149 l-38 -6 0 -163 c0 -139 2 -165 15 -170 13 -4 15 -20 13
-72 l-3 -67 -45 -4 c-25 -3 -64 -2 -87 2 l-43 6 0 56 c0 40 5 62 20 80 18 23
20 41 20 179 l0 154 -24 0 c-43 0 -199 51 -271 88 -100 52 -219 173 -267 272
-20 41 -44 101 -53 133 l-17 59 -141 -2 c-78 -1 -148 -1 -155 -1 -8 1 -12 11
-10 29 l3 27 153 3 c116 2 152 6 149 15 -3 9 -48 13 -160 15 -152 2 -157 2
-157 -18 0 -18 -6 -20 -73 -20 -69 0 -74 2 -85 25 -16 34 -15 118 0 133 7 7
42 12 89 12 l77 0 6 30 c4 24 11 30 31 30 18 0 25 -5 25 -20 0 -20 5 -20 122
-18 l121 3 14 70 c8 39 33 108 55 155 81 167 257 298 471 353 l87 22 0 145
c-1 107 -4 152 -15 170 -17 29 -19 93 -5 121 9 16 22 19 89 19 63 0 80 -3 85
-16z m-266 -32 c3 -27 0 -32 -25 -38 -166 -37 -315 -100 -437 -184 -79 -55
-232 -206 -283 -280 -47 -69 -118 -224 -148 -325 -15 -49 -29 -96 -31 -102 -4
-15 -33 -17 -53 -4 -28 18 45 241 122 376 127 222 333 413 542 502 128 55 268
97 300 89 6 -1 11 -17 13 -34z m514 -3 c306 -100 565 -324 710 -614 42 -83 84
-204 93 -269 l7 -47 -32 3 c-32 3 -34 5 -46 66 -78 385 -439 739 -838 822 -55
11 -56 12 -56 46 0 35 0 35 38 28 20 -3 76 -19 124 -35z m-572 -154 c0 -29 -5
-37 -26 -45 -45 -17 -54 -13 -54 25 0 28 5 38 23 45 45 18 57 13 57 -25z m140
-95 c0 -141 -5 -154 -51 -130 -21 12 -22 16 -16 101 4 54 3 90 -3 94 -14 8
-13 38 2 53 7 7 25 12 40 12 l28 0 0 -130z m258 114 c28 -19 28 -35 1 -52 -19
-12 -20 -19 -14 -101 8 -95 4 -106 -38 -95 -25 6 -25 6 -23 122 1 64 5 123 9
130 11 16 38 15 65 -4z m127 -9 c42 -41 25 -63 -40 -51 -30 6 -35 11 -35 35 0
15 3 31 7 34 14 14 45 6 68 -18z m-665 -65 c0 -33 -4 -42 -25 -52 -31 -14 -34
-11 -42 37 -7 40 5 55 45 55 19 0 22 -5 22 -40z m788 24 c25 -17 28 -42 9 -68
-11 -15 -17 -17 -35 -7 -17 9 -22 21 -22 51 0 44 12 50 48 24z m-910 -73 c10
-29 9 -31 -41 -63 -87 -56 -161 -122 -217 -197 -48 -62 -59 -71 -87 -71 -18 0
-33 3 -33 7 0 13 112 152 154 191 40 37 203 162 211 162 2 0 8 -13 13 -29z
m284 -62 c-4 -70 -6 -78 -29 -88 -44 -20 -46 -17 -56 101 l-4 47 41 14 c22 8
44 12 47 8 3 -3 4 -40 1 -82z m479 71 c16 -9 19 -22 19 -90 0 -87 -4 -91 -55
-68 -24 11 -25 15 -25 90 0 72 2 78 21 78 11 0 29 -5 40 -10z m316 -41 c92
-70 165 -141 225 -219 45 -59 48 -65 32 -77 -25 -19 -27 -18 -64 33 -50 70
-165 179 -236 225 -59 38 -76 63 -57 82 14 14 34 5 100 -44z m-917 -72 l0 -74
-61 -36 -62 -37 -48 48 c-27 26 -49 52 -49 58 0 10 120 83 170 103 48 19 50
16 50 -62z m793 16 c45 -25 84 -48 87 -50 3 -3 -21 -30 -54 -60 l-58 -54 -27
25 c-15 14 -34 26 -43 26 -30 0 -37 24 -31 98 7 85 1 84 126 15z m-1005 -136
c23 -23 42 -47 42 -53 0 -6 -13 -23 -29 -38 l-30 -29 -50 49 -50 49 31 32 c18
18 35 33 38 33 3 0 25 -19 48 -43z m1203 -34 c41 -43 82 -93 91 -112 l16 -34
-59 -30 c-32 -17 -60 -28 -62 -26 -2 2 -18 23 -36 47 l-34 43 38 39 c29 30 35
43 30 60 -7 21 -9 20 -50 -20 l-43 -43 -31 22 c-17 12 -31 25 -31 28 0 7 84
102 91 103 4 0 40 -35 80 -77z m644 31 c9 -14 14 -29 10 -32 -7 -7 -45 34 -45
49 0 17 18 9 35 -17z m-1931 -90 c43 -49 42 -55 -8 -119 l-23 -28 -56 28 c-31
15 -57 30 -57 34 0 21 85 132 99 130 3 0 24 -21 45 -45z m-206 -59 c2 -2 -5
-19 -16 -37 -11 -18 -25 -51 -32 -73 -21 -66 -26 -72 -59 -67 -17 2 -31 9 -31
14 0 5 16 48 37 95 36 84 37 85 66 79 17 -3 33 -8 35 -11z m1760 -70 c23 -47
42 -90 42 -95 0 -6 -14 -10 -31 -10 -25 0 -32 5 -41 33 -7 17 -24 56 -40 85
l-27 53 22 9 c12 5 24 9 27 9 3 1 25 -37 48 -84z m-1653 -33 c38 -21 49 -32
47 -47 -2 -11 -9 -24 -15 -28 -11 -7 -127 0 -136 9 -8 7 31 94 42 94 7 0 35
-13 62 -28z m1539 -16 c23 -50 21 -56 -26 -57 -24 0 -53 -2 -65 -5 -26 -5 -59
34 -43 50 12 12 89 45 106 45 7 1 19 -14 28 -33z m-1526 -111 c2 -2 -3 -25
-10 -52 l-14 -48 -62 0 c-34 0 -62 3 -62 8 0 4 0 25 0 47 0 33 4 42 23 50 19
8 115 4 125 -5z m1555 -2 c3 -5 8 -27 12 -50 l7 -43 -65 0 -65 0 -11 44 c-6
25 -11 47 -11 50 0 9 128 7 133 -1z m-1755 -29 c-4 -34 -27 -49 -61 -40 -20 5
-27 13 -27 30 0 31 7 36 52 36 37 0 39 -2 36 -26z m1910 -6 c2 -19 -1 -28 -11
-28 -8 0 -29 -3 -46 -6 -30 -6 -31 -6 -31 30 l0 37 43 -3 c38 -3 42 -6 45 -30z
m429 -136 c12 -66 6 -192 -10 -208 -4 -4 -7 37 -7 92 0 54 -3 117 -7 138 -9
58 13 37 24 -22z m-34 -57 c4 -36 4 -72 0 -81 -8 -22 -39 -31 -103 -30 l-55 1
-3 75 c-4 91 5 100 93 100 l62 0 6 -65z m4 -197 c-2 -13 -4 -5 -4 17 -1 22 1
32 4 23 2 -10 2 -28 0 -40z m-2485 -11 c4 -7 8 -24 8 -39 0 -51 70 -222 132
-325 69 -115 156 -216 252 -292 62 -50 203 -141 217 -141 5 0 18 32 30 70 23
71 32 80 62 58 16 -12 15 -17 -8 -73 -13 -33 -25 -65 -25 -72 0 -12 132 -56
203 -68 34 -5 37 -8 37 -40 0 -42 -7 -43 -105 -16 -320 89 -568 283 -746 581
-60 102 -138 321 -126 354 6 15 60 17 69 3z m166 3 c7 0 12 -13 12 -31 0 -29
-1 -30 -42 -27 -37 3 -44 7 -46 27 -4 28 14 43 43 36 11 -2 26 -5 33 -5z m207
-27 c4 -16 15 -47 25 -69 l19 -41 -46 -7 c-92 -12 -112 -9 -119 22 -3 15 -10
37 -15 50 -19 47 -12 61 34 65 98 9 96 9 102 -20z m1705 2 c0 -22 -4 -25 -40
-25 -36 0 -40 3 -40 25 0 23 4 25 40 25 36 0 40 -2 40 -25z m160 4 c0 -34 -66
-221 -106 -301 -117 -232 -299 -411 -542 -532 -77 -39 -221 -89 -285 -101
l-38 -6 3 33 c3 32 5 33 83 54 113 30 243 85 333 141 103 63 250 208 321 313
67 101 137 255 152 336 16 84 15 84 49 84 24 0 30 -4 30 -21z m-300 -6 c0 -10
-6 -40 -14 -68 l-13 -50 -68 2 c-37 2 -70 4 -71 6 -2 2 3 26 12 53 9 27 17 55
20 62 2 8 25 12 69 12 55 0 65 -3 65 -17z m537 -25 c-3 -8 -6 -5 -6 6 -1 11 2
17 5 13 3 -3 4 -12 1 -19z m-2268 -135 c65 -156 165 -281 309 -385 84 -62 86
-65 76 -92 -10 -25 -27 -19 -100 36 -90 68 -193 173 -245 250 -40 58 -129 237
-129 258 0 5 13 10 29 10 26 0 31 -6 60 -77z m1851 68 c0 -15 -61 -145 -98
-206 -57 -97 -141 -194 -227 -263 -102 -81 -135 -99 -146 -80 -18 27 -8 44 42
72 66 37 189 153 244 231 46 65 108 184 119 228 5 22 12 27 36 27 17 0 30 -4
30 -9z m-1600 -118 l34 -46 -48 -44 c-37 -33 -52 -41 -61 -33 -14 12 -95 142
-95 152 0 8 39 14 96 17 38 1 43 -2 74 -46z m1404 31 c9 -3 16 -10 16 -14 0
-5 -23 -42 -51 -84 -48 -72 -69 -92 -69 -63 0 6 -18 28 -41 48 l-42 35 34 47
34 47 52 -5 c28 -3 58 -8 67 -11z m-1305 -138 l23 -25 -42 -50 c-24 -28 -46
-51 -50 -51 -3 0 -19 14 -35 30 l-29 30 44 45 c24 25 49 45 55 45 6 0 22 -11
34 -24z m1136 -21 l50 -44 -35 -36 -35 -36 -18 23 c-10 13 -30 36 -43 51 l-25
28 23 29 c13 16 25 29 28 29 3 0 28 -20 55 -44z m-1020 -80 c32 -19 62 -36 67
-37 5 -2 8 -36 6 -75 l-3 -72 -45 20 c-25 11 -73 38 -108 61 l-62 41 42 47
c24 27 44 48 44 49 1 1 27 -15 59 -34z m919 -14 c21 -22 36 -46 34 -53 -6 -14
-167 -108 -186 -108 -7 0 -12 12 -12 28 0 15 -3 43 -6 62 -6 35 -4 37 53 73
32 20 63 36 68 37 6 0 28 -18 49 -39z m-722 -65 c10 -14 10 -134 1 -139 -5 -2
-23 0 -41 5 -24 6 -32 13 -28 24 3 9 6 42 6 75 l0 59 28 -6 c15 -4 30 -12 34
-18z m498 -62 l0 -74 -35 0 -36 0 3 67 c3 60 6 69 27 80 14 6 29 10 33 7 4 -3
8 -39 8 -80z m-376 -82 c-1 -73 -4 -135 -8 -139 -4 -4 -15 -2 -24 3 -14 9 -18
33 -22 138 -3 70 -3 130 0 132 2 3 16 4 30 2 l25 -3 -1 -133z m250 -7 l1 -130
-27 -3 -28 -3 0 136 0 136 26 -3 26 -3 2 -130z m280 3 c11 -43 7 -66 -14 -73
-11 -3 -24 -3 -30 0 -14 9 -12 82 3 88 25 10 35 7 41 -15z m-708 -29 c3 -6 22
-17 40 -25 34 -14 42 -35 25 -63 -8 -12 -16 -13 -48 -3 -21 6 -47 18 -57 25
-17 13 -17 15 -2 45 17 33 30 40 42 21z m592 -37 c5 -30 -11 -48 -50 -56 -61
-12 -82 44 -25 69 44 20 71 15 75 -13z m-8 -446 c0 -3 -4 -8 -10 -11 -5 -3
-10 -1 -10 4 0 6 5 11 10 11 6 0 10 -2 10 -4z"/>
<path d="M1095 2538 c-3 -24 -2 -61 3 -83 9 -36 10 -32 11 43 1 90 -4 106 -14
40z"/>
<path d="M3809 1945 c-7 -25 -17 -45 -21 -45 -4 0 -8 -7 -8 -15 0 -9 6 -12 15
-9 8 4 13 10 10 14 -3 4 2 13 10 20 7 6 11 18 8 26 -3 8 0 14 6 14 6 0 11 9
11 20 0 35 -17 21 -31 -25z"/>
<path d="M3491 1541 c-23 -31 -27 -46 -11 -36 11 7 43 65 36 65 -3 0 -14 -13
-25 -29z"/>
<path d="M2335 3122 c-143 -43 -255 -116 -339 -220 -64 -80 -77 -104 -107
-202 -19 -62 -23 -97 -23 -200 1 -185 31 -273 144 -413 71 -89 146 -142 263
-188 71 -28 97 -33 197 -37 97 -4 129 -1 194 17 222 61 369 203 452 436 27 78
24 288 -5 375 -36 103 -81 179 -149 252 -77 82 -134 119 -243 160 -74 27 -99
31 -204 34 -94 3 -133 0 -180 -14z m184 -48 c24 -5 31 -12 31 -30 0 -22 -4
-24 -45 -24 -40 0 -45 2 -45 23 0 37 7 41 59 31z m-109 -28 c0 -20 -10 -27
-77 -51 -43 -15 -84 -32 -92 -38 -10 -9 -17 -7 -27 8 -8 10 -14 22 -14 25 0 8
37 26 115 56 79 30 95 30 95 0z m281 -15 c79 -30 101 -48 89 -71 -10 -18 -13
-17 -84 16 -41 19 -79 34 -85 34 -6 0 -11 9 -11 20 0 26 24 26 91 1z m-534
-108 c2 -5 -26 -46 -62 -89 -38 -46 -74 -102 -87 -136 -22 -57 -43 -73 -54
-43 -8 19 58 146 105 205 59 74 88 93 98 63z m754 -45 c55 -60 136 -218 118
-229 -22 -14 -25 -11 -46 39 -11 26 -48 84 -82 129 -57 76 -67 103 -39 103 6
0 28 -19 49 -42z m-466 -188 c2 0 13 -17 25 -37 27 -45 29 -97 6 -140 -26 -51
-99 -62 -142 -22 -104 97 -46 261 75 212 18 -7 35 -13 36 -13z m-465 -191 c0
-67 -1 -70 -22 -67 -20 3 -23 10 -26 57 -4 66 1 81 28 81 18 0 20 -6 20 -71z
m1078 -10 c-2 -40 -7 -54 -18 -54 -20 0 -27 104 -8 116 21 13 29 -5 26 -62z
m-1031 -194 c14 -33 49 -93 79 -133 47 -61 52 -73 38 -79 -13 -5 -28 6 -56 37
-42 47 -112 169 -124 213 -6 26 -4 28 16 25 16 -2 28 -18 47 -63z m1005 40
c-12 -67 -135 -253 -169 -254 -25 -2 -13 31 28 77 23 26 57 82 78 125 24 52
41 76 51 74 9 -1 14 -11 12 -22z m-238 -291 c4 -12 -12 -23 -67 -48 -96 -44
-117 -49 -117 -27 0 12 21 26 73 45 39 16 76 32 82 37 13 13 22 11 29 -7z
m-466 -30 c54 -20 72 -31 72 -45 0 -25 -3 -24 -104 12 -79 29 -98 44 -79 63 8
8 10 8 111 -30z m212 -54 c0 -16 -7 -20 -35 -20 -28 0 -35 4 -35 20 0 16 7 20
35 20 28 0 35 -4 35 -20z"/>
<path d="M3196 2531 c-8 -13 57 -21 171 -21 102 0 133 5 133 21 0 12 -297 12
-304 0z"/>
<path d="M1588 2523 c39 -2 105 -2 145 0 39 1 7 3 -73 3 -80 0 -112 -2 -72 -3z"/>
<path d="M2492 1644 c-3 -117 0 -164 7 -159 13 7 16 325 4 325 -5 0 -9 -75
-11 -166z"/>
<path d="M846 2295 c4 -8 10 -12 15 -9 14 8 10 24 -6 24 -9 0 -12 -6 -9 -15z"/>
<path d="M921 1960 c0 -14 9 -41 19 -60 l20 -35 -6 30 c-4 17 -13 44 -20 60
-12 29 -12 29 -13 5z"/>
<path d="M1286 1347 c3 -10 9 -15 12 -12 3 3 0 11 -7 18 -10 9 -11 8 -5 -6z"/>
<path d="M1390 1245 c7 -8 16 -13 20 -10 4 2 16 -8 27 -23 16 -21 83 -60 83
-48 0 2 -27 24 -60 49 -59 46 -96 63 -70 32z"/>
</g>
</svg>
